<svg width="22" height="23" viewBox="0 0 22 23" fill="none" xmlns="http://www.w3.org/2000/svg">
<path d="M10.77 14.7373C12.6485 14.7373 14.1709 13.2148 14.1709 11.3364C14.1709 9.45796 12.6485 7.93549 10.77 7.93549C8.89161 7.93549 7.36914 9.45796 7.36914 11.3364C7.36914 13.2148 8.89161 14.7373 10.77 14.7373ZM10.77 9.06912C12.0204 9.06912 13.0373 10.086 13.0373 11.3364C13.0373 12.5868 12.0204 13.6037 10.77 13.6037C9.51964 13.6037 8.50277 12.5868 8.50277 11.3364C8.50277 10.086 9.51964 9.06912 10.77 9.06912Z" fill="#071B49"/>
<path d="M2.10062 18.7203C3.44001 18.3887 4.82021 18.0157 5.81044 18.0157C6.19757 18.0157 6.52519 18.0729 6.76722 18.2113C7.60271 18.6902 8.0811 20.6304 8.60654 22.4635C9.30769 22.5967 10.0293 22.6727 10.7695 22.6727C11.5098 22.6727 12.2313 22.5967 12.9325 22.4641C13.4574 20.631 13.9363 18.6908 14.7712 18.2124C15.0133 18.0735 15.3409 18.0168 15.728 18.0168C16.7183 18.0168 18.099 18.3898 19.4378 18.7214C20.3476 17.6739 21.0618 16.4598 21.5385 15.1317C20.2098 13.768 18.7769 12.3594 18.7769 11.3375C18.7769 10.3149 20.2098 8.90696 21.5385 7.5432C21.0618 6.21514 20.3476 5.00102 19.4378 3.95355C18.0985 4.28513 16.7183 4.6581 15.728 4.6581C15.3409 4.6581 15.0133 4.60085 14.7712 4.46255C13.9358 3.98359 13.4574 2.04337 12.9319 0.210289C12.2313 0.0759533 11.5098 0 10.7695 0C10.0293 0 9.30769 0.0759534 8.60654 0.208589C8.08167 2.04167 7.60271 3.98189 6.76779 4.46028C6.52576 4.59915 6.19814 4.65583 5.811 4.65583C4.82077 4.65583 3.44001 4.28287 2.10062 3.95128C1.19088 4.99989 0.476693 6.21344 0 7.54206C1.32862 8.90582 2.76153 10.3138 2.76153 11.3363C2.76153 12.3589 1.32918 13.7668 0 15.1306C0.476693 16.4587 1.19088 17.6728 2.10062 18.7203ZM1.32465 7.27622C1.64433 6.54616 2.04621 5.85975 2.52573 5.22605C3.68544 5.51456 4.86102 5.78946 5.81044 5.78946C6.4277 5.78946 6.9248 5.6761 7.3312 5.44371C8.45407 4.7998 8.95173 3.1481 9.49928 1.21469C9.92893 1.16084 10.354 1.13363 10.7695 1.13363C11.185 1.13363 11.6101 1.16084 12.0397 1.21469C12.5873 3.14867 13.085 4.80037 14.2078 5.44427C14.6137 5.67723 15.1113 5.79003 15.7286 5.79003C16.678 5.79003 17.8536 5.51456 19.0133 5.22662C19.4928 5.86032 19.8947 6.54616 20.2144 7.27679C18.8552 8.67456 17.6444 10.0043 17.6444 11.3369C17.6444 12.6689 18.8557 13.9992 20.2144 15.397C19.8947 16.1276 19.4928 16.8135 19.0133 17.4472C17.8536 17.1587 16.678 16.8832 15.7286 16.8832C15.1113 16.8832 14.6142 16.9966 14.2078 17.229C13.085 17.8729 12.5873 19.5246 12.0397 21.4585C11.6101 21.5118 11.185 21.539 10.7695 21.539C10.354 21.539 9.92893 21.5118 9.49928 21.458C8.95173 19.524 8.4535 17.8723 7.3312 17.2284C6.92536 16.9954 6.4277 16.8826 5.81044 16.8826C4.86102 16.8826 3.68544 17.1581 2.52573 17.446C2.04621 16.8123 1.64433 16.1265 1.32465 15.3959C2.68388 13.9981 3.8946 12.6684 3.8946 11.3363C3.89516 10.0037 2.68388 8.67399 1.32465 7.27622Z" fill="#071B49"/>
</svg>
