<svg width="17" height="25" viewBox="0 0 17 25" fill="none" xmlns="http://www.w3.org/2000/svg">
<path d="M8.46154 0C3.78835 0 0 3.78835 0 8.46154C0 16.9231 8.46154 24.1758 8.46154 24.1758C8.46154 24.1758 16.9231 16.9231 16.9231 8.46154C16.9231 3.78835 13.1347 0 8.46154 0ZM8.46154 22.5198C6.43681 20.5295 1.20879 14.7781 1.20879 8.46154C1.20879 4.46225 4.46225 1.20879 8.46154 1.20879C12.4608 1.20879 15.7143 4.46225 15.7143 8.46154C15.7143 14.7787 10.4857 20.5301 8.46154 22.5198Z" fill="#041B4E"/>
<path d="M8.46172 9.67039C9.12932 9.67039 9.67051 9.1292 9.67051 8.4616C9.67051 7.794 9.12932 7.25281 8.46172 7.25281C7.79412 7.25281 7.25293 7.794 7.25293 8.4616C7.25293 9.1292 7.79412 9.67039 8.46172 9.67039Z" fill="#041B4E"/>
</svg>
